<svg id="Capa_1" enable-background="new 0 0 512 512" height="512" viewBox="0 0 512 512" width="512" xmlns="http://www.w3.org/2000/svg"><g><circle cx="271.026" cy="285.963" r="14.999"/><circle cx="211.032" cy="345.963" r="14.999"/><circle cx="76.046" cy="285.963" r="14.999"/><circle cx="136.04" cy="210.963" r="14.999"/><circle cx="271.026" cy="105.963" r="14.999"/><circle cx="346.018" cy="165.963" r="14.999"/><circle cx="226.03" cy="165.963" r="14.999"/><circle cx="286.024" cy="390.963" r="14.999"/><circle cx="331.019" cy="330.963" r="14.999"/><circle cx="391.013" cy="390.963" r="14.999"/><circle cx="421.01" cy="315.963" r="14.999"/><path d="m410.005 227.331c23.143-42.159 28.234-94.944 2.68-136.122-39.264-63.238-128.366-79.201-198.622-35.581-18.596 11.543-33.332 25.466-45.051 42.563-9.709 14.165-24.193 24.769-40.782 29.857-55.993 17.178-103.176 57.852-121.131 112.802-29.037 88.861 34.267 169.112 130.463 165.119 33.764 57.863 112.581 74.995 179.459 74.995 54.829 0 101.5-10.592 134.97-30.63 39.259-23.505 60.01-59.595 60.01-104.37-.001-69.035-37.138-101.372-101.996-118.633zm-374.394 22.838c14.845-45.429 54.568-79.068 101.415-93.439 23.05-7.071 43.197-21.836 56.727-41.576 9.32-13.598 21.138-24.73 36.129-34.037 56.207-34.895 126.779-23.27 157.317 25.916 19.198 30.934 15.86 75.841-7.946 113.409-18.799-3.57-39.008-6.477-60.224-9.344-108.829-14.707-196.988 44.87-196.988 134.865 0 10.508 1.186 20.541 3.499 30.058-69.56-2.693-111.199-60.758-89.929-125.852zm281.41 200.794c-38.703 0-164.982-7.572-164.982-105 0-73.258 75.006-117.022 162.974-105.135 116.107 15.691 166.991 30.379 166.991 105.135-.001 80.307-85.041 105-164.983 105z"/></g></svg>